<svg width="1920" height="1080" viewBox="0 0 1920 1080" fill="none" xmlns="http://www.w3.org/2000/svg">
<rect width="1920" height="1080" fill="url(#paint0_linear_2_3)"/>
<g filter="url(#filter0_d_2_3)">
<path d="M501.816 575.253L469.167 539.709L501.816 504.166H536.395L503.585 539.709L536.395 575.253H501.816ZM686.414 483.097V596H658.912V528.29L633.662 596H611.467L586.056 528.129V596H558.554V483.097H591.042L622.725 561.261L654.087 483.097H686.414ZM794.809 506.257V596H767.307V583.777C764.519 587.744 760.713 590.961 755.888 593.427C751.17 595.786 745.917 596.965 740.127 596.965C733.265 596.965 727.207 595.464 721.953 592.462C716.699 589.352 712.625 584.903 709.73 579.113C706.835 573.323 705.387 566.514 705.387 558.687V506.257H732.729V554.988C732.729 560.993 734.283 565.657 737.393 568.98C740.502 572.304 744.684 573.966 749.937 573.966C755.298 573.966 759.534 572.304 762.643 568.98C765.752 565.657 767.307 560.993 767.307 554.988V506.257H794.809ZM842.066 476.985V596H814.564V476.985H842.066ZM912.014 572.68V596H898.022C888.051 596 880.277 593.588 874.702 588.763C869.126 583.83 866.339 575.843 866.339 564.799V529.094H855.402V506.257H866.339V484.384H893.841V506.257H911.854V529.094H893.841V565.121C893.841 567.801 894.484 569.731 895.771 570.91C897.057 572.09 899.202 572.68 902.204 572.68H912.014ZM941.165 496.928C936.34 496.928 932.373 495.534 929.264 492.747C926.261 489.852 924.76 486.314 924.76 482.132C924.76 477.843 926.261 474.305 929.264 471.517C932.373 468.622 936.34 467.175 941.165 467.175C945.883 467.175 949.743 468.622 952.745 471.517C955.854 474.305 957.409 477.843 957.409 482.132C957.409 486.314 955.854 489.852 952.745 492.747C949.743 495.534 945.883 496.928 941.165 496.928ZM954.836 506.257V596H927.334V506.257H954.836ZM969.298 551.128C969.298 541.8 971.174 533.651 974.927 526.682C978.787 519.713 984.094 514.352 990.849 510.599C997.711 506.846 1005.54 504.97 1014.33 504.97C1025.59 504.97 1034.97 507.918 1042.48 513.816C1050.09 519.713 1055.07 528.022 1057.43 538.744H1028.16C1025.7 531.882 1020.92 528.451 1013.85 528.451C1008.81 528.451 1004.79 530.435 1001.79 534.402C998.783 538.262 997.282 543.837 997.282 551.128C997.282 558.419 998.783 564.048 1001.79 568.015C1004.79 571.875 1008.81 573.805 1013.85 573.805C1020.92 573.805 1025.7 570.374 1028.16 563.512H1057.43C1055.07 574.02 1050.09 582.276 1042.48 588.28C1034.86 594.284 1025.48 597.287 1014.33 597.287C1005.54 597.287 997.711 595.41 990.849 591.658C984.094 587.905 978.787 582.544 974.927 575.575C971.174 568.605 969.298 560.456 969.298 551.128ZM1112.99 597.287C1104.2 597.287 1096.27 595.41 1089.19 591.658C1082.22 587.905 1076.7 582.544 1072.63 575.575C1068.66 568.605 1066.68 560.456 1066.68 551.128C1066.68 541.907 1068.71 533.812 1072.79 526.843C1076.86 519.766 1082.44 514.352 1089.51 510.599C1096.59 506.846 1104.52 504.97 1113.32 504.97C1122.11 504.97 1130.04 506.846 1137.12 510.599C1144.2 514.352 1149.77 519.766 1153.85 526.843C1157.92 533.812 1159.96 541.907 1159.96 551.128C1159.96 560.349 1157.87 568.498 1153.69 575.575C1149.61 582.544 1143.98 587.905 1136.8 591.658C1129.72 595.41 1121.79 597.287 1112.99 597.287ZM1112.99 573.484C1118.25 573.484 1122.7 571.554 1126.34 567.694C1130.1 563.834 1131.97 558.312 1131.97 551.128C1131.97 543.944 1130.15 538.423 1126.5 534.563C1122.97 530.703 1118.57 528.773 1113.32 528.773C1107.96 528.773 1103.51 530.703 1099.97 534.563C1096.43 538.315 1094.66 543.837 1094.66 551.128C1094.66 558.312 1096.38 563.834 1099.81 567.694C1103.35 571.554 1107.74 573.484 1112.99 573.484ZM1169.08 550.967C1169.08 541.746 1170.8 533.651 1174.23 526.682C1177.76 519.713 1182.54 514.352 1188.54 510.599C1194.54 506.846 1201.25 504.97 1208.64 504.97C1214.54 504.97 1219.9 506.203 1224.73 508.669C1229.66 511.135 1233.52 514.459 1236.31 518.64V476.985H1263.81V596H1236.31V583.134C1233.73 587.422 1230.03 590.853 1225.21 593.427C1220.49 596 1214.97 597.287 1208.64 597.287C1201.25 597.287 1194.54 595.41 1188.54 591.658C1182.54 587.798 1177.76 582.383 1174.23 575.414C1170.8 568.337 1169.08 560.188 1169.08 550.967ZM1236.31 551.128C1236.31 544.266 1234.38 538.852 1230.52 534.884C1226.76 530.917 1222.15 528.934 1216.69 528.934C1211.22 528.934 1206.55 530.917 1202.69 534.884C1198.94 538.744 1197.06 544.105 1197.06 550.967C1197.06 557.83 1198.94 563.298 1202.69 567.372C1206.55 571.339 1211.22 573.323 1216.69 573.323C1222.15 573.323 1226.76 571.339 1230.52 567.372C1234.38 563.405 1236.31 557.99 1236.31 551.128ZM1368.3 549.681C1368.3 552.254 1368.14 554.935 1367.82 557.722H1305.58C1306.01 563.298 1307.78 567.587 1310.89 570.589C1314.1 573.484 1318.02 574.931 1322.63 574.931C1329.49 574.931 1334.26 572.036 1336.94 566.246H1366.21C1364.71 572.143 1361.98 577.451 1358.01 582.169C1354.15 586.886 1349.27 590.585 1343.37 593.266C1337.48 595.946 1330.88 597.287 1323.59 597.287C1314.8 597.287 1306.97 595.41 1300.11 591.658C1293.25 587.905 1287.89 582.544 1284.03 575.575C1280.17 568.605 1278.24 560.456 1278.24 551.128C1278.24 541.8 1280.11 533.651 1283.87 526.682C1287.73 519.713 1293.09 514.352 1299.95 510.599C1306.81 506.846 1314.69 504.97 1323.59 504.97C1332.28 504.97 1340 506.793 1346.75 510.438C1353.51 514.084 1358.76 519.284 1362.51 526.039C1366.37 532.794 1368.3 540.674 1368.3 549.681ZM1340.16 542.443C1340.16 537.726 1338.55 533.973 1335.33 531.185C1332.12 528.398 1328.09 527.004 1323.27 527.004C1318.66 527.004 1314.75 528.344 1311.53 531.024C1308.42 533.705 1306.49 537.511 1305.74 542.443H1340.16ZM1382.97 504.166H1417.55L1450.2 539.709L1417.55 575.253H1382.97L1415.78 539.709L1382.97 504.166Z" fill="white"/>
</g>
<g filter="url(#filter1_d_2_3)">
<path d="M605.386 396.494C605.386 392.109 606.396 388.175 608.417 384.693C610.48 381.211 613.253 378.502 616.736 376.568C620.261 374.59 624.109 373.601 628.279 373.601C633.051 373.601 637.285 374.784 640.983 377.148C644.723 379.47 647.431 382.78 649.108 387.079H640.273C639.112 384.715 637.5 382.952 635.437 381.791C633.373 380.631 630.987 380.05 628.279 380.05C625.312 380.05 622.668 380.717 620.347 382.049C618.025 383.382 616.198 385.295 614.866 387.789C613.576 390.282 612.931 393.184 612.931 396.494C612.931 399.805 613.576 402.706 614.866 405.2C616.198 407.693 618.025 409.628 620.347 411.004C622.668 412.336 625.312 413.003 628.279 413.003C630.987 413.003 633.373 412.422 635.437 411.262C637.5 410.101 639.112 408.338 640.273 405.974H649.108C647.431 410.273 644.723 413.583 640.983 415.905C637.285 418.226 633.051 419.387 628.279 419.387C624.066 419.387 620.218 418.42 616.736 416.485C613.253 414.507 610.48 411.778 608.417 408.295C606.396 404.813 605.386 400.879 605.386 396.494ZM665.064 388.627C666.139 386.821 667.558 385.424 669.32 384.435C671.126 383.403 673.254 382.888 675.705 382.888V390.497H673.834C670.954 390.497 668.761 391.228 667.257 392.689C665.795 394.151 665.064 396.688 665.064 400.299V419H657.713V383.468H665.064V388.627ZM715.028 400.363C715.028 401.696 714.942 402.9 714.77 403.975H687.621C687.836 406.812 688.889 409.091 690.781 410.81C692.672 412.53 694.994 413.39 697.745 413.39C701.7 413.39 704.495 411.735 706.129 408.424H714.06C712.986 411.692 711.03 414.378 708.192 416.485C705.398 418.549 701.915 419.58 697.745 419.58C694.349 419.58 691.297 418.828 688.588 417.323C685.923 415.776 683.816 413.626 682.269 410.875C680.764 408.08 680.012 404.856 680.012 401.202C680.012 397.547 680.742 394.345 682.204 391.593C683.709 388.799 685.794 386.649 688.459 385.145C691.168 383.64 694.263 382.888 697.745 382.888C701.099 382.888 704.086 383.618 706.709 385.08C709.331 386.542 711.373 388.605 712.835 391.271C714.297 393.893 715.028 396.924 715.028 400.363ZM707.354 398.042C707.311 395.333 706.344 393.162 704.452 391.529C702.56 389.895 700.217 389.078 697.423 389.078C694.886 389.078 692.715 389.895 690.91 391.529C689.104 393.119 688.029 395.29 687.685 398.042H707.354ZM719.812 401.073C719.812 397.504 720.543 394.345 722.004 391.593C723.509 388.842 725.53 386.714 728.066 385.209C730.646 383.661 733.483 382.888 736.578 382.888C739.373 382.888 741.802 383.446 743.865 384.564C745.972 385.639 747.648 386.993 748.895 388.627V383.468H756.311V419H748.895V413.712C747.648 415.389 745.95 416.786 743.801 417.904C741.651 419.021 739.201 419.58 736.449 419.58C733.397 419.58 730.603 418.807 728.066 417.259C725.53 415.668 723.509 413.476 722.004 410.681C720.543 407.844 719.812 404.641 719.812 401.073ZM748.895 401.202C748.895 398.751 748.379 396.623 747.348 394.818C746.359 393.012 745.048 391.636 743.414 390.69C741.78 389.745 740.018 389.272 738.126 389.272C736.234 389.272 734.472 389.745 732.838 390.69C731.204 391.593 729.872 392.947 728.84 394.753C727.851 396.516 727.357 398.622 727.357 401.073C727.357 403.523 727.851 405.673 728.84 407.521C729.872 409.37 731.204 410.789 732.838 411.778C734.515 412.723 736.277 413.196 738.126 413.196C740.018 413.196 741.78 412.723 743.414 411.778C745.048 410.832 746.359 409.456 747.348 407.65C748.379 405.802 748.895 403.652 748.895 401.202ZM774.544 389.465V409.134C774.544 410.466 774.845 411.434 775.447 412.035C776.091 412.594 777.166 412.874 778.671 412.874H783.185V419H777.381C774.071 419 771.534 418.226 769.772 416.678C768.009 415.131 767.128 412.616 767.128 409.134V389.465H762.936V383.468H767.128V374.633H774.544V383.468H783.185V389.465H774.544ZM822.526 400.363C822.526 401.696 822.44 402.9 822.268 403.975H795.119C795.334 406.812 796.388 409.091 798.279 410.81C800.171 412.53 802.492 413.39 805.244 413.39C809.199 413.39 811.993 411.735 813.627 408.424H821.559C820.484 411.692 818.528 414.378 815.691 416.485C812.896 418.549 809.414 419.58 805.244 419.58C801.848 419.58 798.795 418.828 796.087 417.323C793.421 415.776 791.315 413.626 789.767 410.875C788.262 408.08 787.51 404.856 787.51 401.202C787.51 397.547 788.241 394.345 789.703 391.593C791.207 388.799 793.292 386.649 795.958 385.145C798.666 383.64 801.762 382.888 805.244 382.888C808.597 382.888 811.585 383.618 814.207 385.08C816.83 386.542 818.872 388.605 820.334 391.271C821.795 393.893 822.526 396.924 822.526 400.363ZM814.852 398.042C814.809 395.333 813.842 393.162 811.95 391.529C810.059 389.895 807.716 389.078 804.921 389.078C802.385 389.078 800.214 389.895 798.408 391.529C796.603 393.119 795.528 395.29 795.184 398.042H814.852ZM855.798 426.287H848.447V367.346H855.798V426.287ZM904.614 419.451C900.443 419.451 896.596 418.484 893.07 416.55C889.588 414.572 886.815 411.842 884.752 408.36C882.731 404.834 881.721 400.879 881.721 396.494C881.721 392.109 882.731 388.175 884.752 384.693C886.815 381.211 889.588 378.502 893.07 376.568C896.596 374.59 900.443 373.601 904.614 373.601C908.827 373.601 912.674 374.59 916.157 376.568C919.682 378.502 922.455 381.211 924.475 384.693C926.496 388.175 927.506 392.109 927.506 396.494C927.506 400.879 926.496 404.834 924.475 408.36C922.455 411.842 919.682 414.572 916.157 416.55C912.674 418.484 908.827 419.451 904.614 419.451ZM904.614 413.067C907.58 413.067 910.224 412.401 912.545 411.068C914.867 409.692 916.673 407.758 917.962 405.264C919.295 402.728 919.961 399.805 919.961 396.494C919.961 393.184 919.295 390.282 917.962 387.789C916.673 385.295 914.867 383.382 912.545 382.049C910.224 380.717 907.58 380.05 904.614 380.05C901.647 380.05 899.003 380.717 896.682 382.049C894.36 383.382 892.533 385.295 891.2 387.789C889.911 390.282 889.266 393.184 889.266 396.494C889.266 399.805 889.911 402.728 891.2 405.264C892.533 407.758 894.36 409.692 896.682 411.068C899.003 412.401 901.647 413.067 904.614 413.067ZM942.092 388.691C943.339 387.058 945.037 385.682 947.186 384.564C949.336 383.446 951.765 382.888 954.473 382.888C957.569 382.888 960.384 383.661 962.921 385.209C965.5 386.714 967.521 388.842 968.983 391.593C970.444 394.345 971.175 397.504 971.175 401.073C971.175 404.641 970.444 407.844 968.983 410.681C967.521 413.476 965.5 415.668 962.921 417.259C960.384 418.807 957.569 419.58 954.473 419.58C951.765 419.58 949.357 419.043 947.251 417.968C945.144 416.85 943.425 415.475 942.092 413.841V435.895H934.74V383.468H942.092V388.691ZM963.695 401.073C963.695 398.622 963.179 396.516 962.147 394.753C961.158 392.947 959.826 391.593 958.149 390.69C956.515 389.745 954.753 389.272 952.861 389.272C951.012 389.272 949.25 389.745 947.573 390.69C945.939 391.636 944.607 393.012 943.575 394.818C942.586 396.623 942.092 398.751 942.092 401.202C942.092 403.652 942.586 405.802 943.575 407.65C944.607 409.456 945.939 410.832 947.573 411.778C949.25 412.723 951.012 413.196 952.861 413.196C954.753 413.196 956.515 412.723 958.149 411.778C959.826 410.789 961.158 409.37 962.147 407.521C963.179 405.673 963.695 403.523 963.695 401.073ZM1011.01 400.363C1011.01 401.696 1010.92 402.9 1010.75 403.975H983.604C983.819 406.812 984.872 409.091 986.764 410.81C988.655 412.53 990.977 413.39 993.728 413.39C997.684 413.39 1000.48 411.735 1002.11 408.424H1010.04C1008.97 411.692 1007.01 414.378 1004.18 416.485C1001.38 418.549 997.898 419.58 993.728 419.58C990.332 419.58 987.28 418.828 984.571 417.323C981.906 415.776 979.799 413.626 978.252 410.875C976.747 408.08 975.995 404.856 975.995 401.202C975.995 397.547 976.725 394.345 978.187 391.593C979.692 388.799 981.777 386.649 984.442 385.145C987.151 383.64 990.246 382.888 993.728 382.888C997.082 382.888 1000.07 383.618 1002.69 385.08C1005.31 386.542 1007.36 388.605 1008.82 391.271C1010.28 393.893 1011.01 396.924 1011.01 400.363ZM1003.34 398.042C1003.29 395.333 1002.33 393.162 1000.43 391.529C998.543 389.895 996.2 389.078 993.406 389.078C990.869 389.078 988.698 389.895 986.893 391.529C985.087 393.119 984.012 395.29 983.668 398.042H1003.34ZM1036.17 382.888C1038.97 382.888 1041.46 383.468 1043.65 384.629C1045.89 385.789 1047.63 387.509 1048.88 389.788C1050.12 392.066 1050.75 394.818 1050.75 398.042V419H1043.46V399.138C1043.46 395.957 1042.66 393.528 1041.07 391.851C1039.48 390.132 1037.31 389.272 1034.56 389.272C1031.81 389.272 1029.62 390.132 1027.98 391.851C1026.39 393.528 1025.6 395.957 1025.6 399.138V419H1018.25V383.468H1025.6V387.531C1026.8 386.069 1028.33 384.93 1030.18 384.113C1032.07 383.296 1034.07 382.888 1036.17 382.888ZM1086.16 426.287H1078.81V367.346H1086.16V426.287ZM1129.17 374.182C1133.94 374.182 1138.11 375.106 1141.68 376.955C1145.29 378.76 1148.07 381.383 1150 384.822C1151.98 388.218 1152.97 392.195 1152.97 396.752C1152.97 401.309 1151.98 405.264 1150 408.618C1148.07 411.971 1145.29 414.55 1141.68 416.356C1138.11 418.119 1133.94 419 1129.17 419H1114.53V374.182H1129.17ZM1129.17 413.003C1134.42 413.003 1138.44 411.584 1141.23 408.747C1144.03 405.909 1145.42 401.911 1145.42 396.752C1145.42 391.55 1144.03 387.488 1141.23 384.564C1138.44 381.641 1134.42 380.179 1129.17 380.179H1121.89V413.003H1129.17ZM1192.82 400.363C1192.82 401.696 1192.73 402.9 1192.56 403.975H1165.41C1165.63 406.812 1166.68 409.091 1168.57 410.81C1170.46 412.53 1172.79 413.39 1175.54 413.39C1179.49 413.39 1182.29 411.735 1183.92 408.424H1191.85C1190.78 411.692 1188.82 414.378 1185.98 416.485C1183.19 418.549 1179.71 419.58 1175.54 419.58C1172.14 419.58 1169.09 418.828 1166.38 417.323C1163.71 415.776 1161.61 413.626 1160.06 410.875C1158.56 408.08 1157.8 404.856 1157.8 401.202C1157.8 397.547 1158.53 394.345 1160 391.593C1161.5 388.799 1163.59 386.649 1166.25 385.145C1168.96 383.64 1172.06 382.888 1175.54 382.888C1178.89 382.888 1181.88 383.618 1184.5 385.08C1187.12 386.542 1189.17 388.605 1190.63 391.271C1192.09 393.893 1192.82 396.924 1192.82 400.363ZM1185.15 398.042C1185.1 395.333 1184.14 393.162 1182.24 391.529C1180.35 389.895 1178.01 389.078 1175.22 389.078C1172.68 389.078 1170.51 389.895 1168.7 391.529C1166.9 393.119 1165.82 395.29 1165.48 398.042H1185.15ZM1207.41 371.28V419H1200.05V371.28H1207.41ZM1249.62 400.363C1249.62 401.696 1249.54 402.9 1249.37 403.975H1222.22C1222.43 406.812 1223.48 409.091 1225.38 410.81C1227.27 412.53 1229.59 413.39 1232.34 413.39C1236.3 413.39 1239.09 411.735 1240.72 408.424H1248.66C1247.58 411.692 1245.63 414.378 1242.79 416.485C1239.99 418.549 1236.51 419.58 1232.34 419.58C1228.94 419.58 1225.89 418.828 1223.18 417.323C1220.52 415.776 1218.41 413.626 1216.86 410.875C1215.36 408.08 1214.61 404.856 1214.61 401.202C1214.61 397.547 1215.34 394.345 1216.8 391.593C1218.3 388.799 1220.39 386.649 1223.05 385.145C1225.76 383.64 1228.86 382.888 1232.34 382.888C1235.69 382.888 1238.68 383.618 1241.3 385.08C1243.93 386.542 1245.97 388.605 1247.43 391.271C1248.89 393.893 1249.62 396.924 1249.62 400.363ZM1241.95 398.042C1241.91 395.333 1240.94 393.162 1239.05 391.529C1237.16 389.895 1234.81 389.078 1232.02 389.078C1229.48 389.078 1227.31 389.895 1225.51 391.529C1223.7 393.119 1222.63 395.29 1222.28 398.042H1241.95ZM1265.43 389.465V409.134C1265.43 410.466 1265.74 411.434 1266.34 412.035C1266.98 412.594 1268.06 412.874 1269.56 412.874H1274.08V419H1268.27C1264.96 419 1262.43 418.226 1260.66 416.678C1258.9 415.131 1258.02 412.616 1258.02 409.134V389.465H1253.83V383.468H1258.02V374.633H1265.43V383.468H1274.08V389.465H1265.43ZM1313.42 400.363C1313.42 401.696 1313.33 402.9 1313.16 403.975H1286.01C1286.23 406.812 1287.28 409.091 1289.17 410.81C1291.06 412.53 1293.38 413.39 1296.13 413.39C1300.09 413.39 1302.88 411.735 1304.52 408.424H1312.45C1311.38 411.692 1309.42 414.378 1306.58 416.485C1303.79 418.549 1300.3 419.58 1296.13 419.58C1292.74 419.58 1289.69 418.828 1286.98 417.323C1284.31 415.776 1282.21 413.626 1280.66 410.875C1279.15 408.08 1278.4 404.856 1278.4 401.202C1278.4 397.547 1279.13 394.345 1280.59 391.593C1282.1 388.799 1284.18 386.649 1286.85 385.145C1289.56 383.64 1292.65 382.888 1296.13 382.888C1299.49 382.888 1302.48 383.618 1305.1 385.08C1307.72 386.542 1309.76 388.605 1311.22 391.271C1312.69 393.893 1313.42 396.924 1313.42 400.363ZM1305.74 398.042C1305.7 395.333 1304.73 393.162 1302.84 391.529C1300.95 389.895 1298.61 389.078 1295.81 389.078C1293.28 389.078 1291.1 389.895 1289.3 391.529C1287.49 393.119 1286.42 395.29 1286.07 398.042H1305.74Z" fill="white"/>
</g>
<defs>
<filter id="filter0_d_2_3" x="459.167" y="457.175" width="1011.03" height="160.112" filterUnits="userSpaceOnUse" color-interpolation-filters="sRGB">
<feFlood flood-opacity="0" result="BackgroundImageFix"/>
<feColorMatrix in="SourceAlpha" type="matrix" values="0 0 0 0 0 0 0 0 0 0 0 0 0 0 0 0 0 0 127 0" result="hardAlpha"/>
<feOffset dx="5" dy="5"/>
<feGaussianBlur stdDeviation="7.5"/>
<feComposite in2="hardAlpha" operator="out"/>
<feColorMatrix type="matrix" values="0 0 0 0 0 0 0 0 0 0 0 0 0 0 0 0 0 0 0.5 0"/>
<feBlend mode="normal" in2="BackgroundImageFix" result="effect1_dropShadow_2_3"/>
<feBlend mode="normal" in="SourceGraphic" in2="effect1_dropShadow_2_3" result="shape"/>
</filter>
<filter id="filter1_d_2_3" x="600.386" y="362.346" width="728.031" height="88.5492" filterUnits="userSpaceOnUse" color-interpolation-filters="sRGB">
<feFlood flood-opacity="0" result="BackgroundImageFix"/>
<feColorMatrix in="SourceAlpha" type="matrix" values="0 0 0 0 0 0 0 0 0 0 0 0 0 0 0 0 0 0 127 0" result="hardAlpha"/>
<feOffset dx="5" dy="5"/>
<feGaussianBlur stdDeviation="5"/>
<feComposite in2="hardAlpha" operator="out"/>
<feColorMatrix type="matrix" values="0 0 0 0 0 0 0 0 0 0 0 0 0 0 0 0 0 0 0.5 0"/>
<feBlend mode="normal" in2="BackgroundImageFix" result="effect1_dropShadow_2_3"/>
<feBlend mode="normal" in="SourceGraphic" in2="effect1_dropShadow_2_3" result="shape"/>
</filter>
<linearGradient id="paint0_linear_2_3" x1="960" y1="0" x2="960" y2="1080" gradientUnits="userSpaceOnUse">
<stop stop-color="#C4C4C4"/>
<stop offset="0.0001" stop-color="#354764"/>
<stop offset="1" stop-color="#202F46"/>
</linearGradient>
</defs>
</svg>
