{
    "asset" : {
        "generator" : "Khronos glTF Blender I/O v1.1.46",
        "version" : "2.0"
    },
    "scene" : 0,
    "scenes" : [
        {
            "name" : "Scene",
            "nodes" : [
                12
            ]
        }
    ],
    "nodes" : [
        {
            "name" : "Head",
            "translation" : [
                0,
                6,
                0
            ]
        },
        {
            "name" : "Arm R",
            "rotation" : [
                -8.344782287394992e-08,
                -2.652734904298997e-14,
                1,
                4.484781618882376e-14
            ],
            "translation" : [
                5,
                5,
                0
            ]
        },
        {
            "name" : "Arm L",
            "rotation" : [
                -8.344782287394992e-08,
                -2.652734904298997e-14,
                1,
                4.484781618882376e-14
            ],
            "translation" : [
                -5,
                5,
                0
            ]
        },
        {
            "children" : [
                0,
                1,
                2
            ],
            "name" : "Body"
        },
        {
            "name" : "Foot L",
            "rotation" : [
                -3.3717498126861756e-07,
                0.7071068286895752,
                0.7071068286895752,
                -3.371746686298138e-07
            ],
            "translation" : [
                -2,
                -2,
                -2
            ]
        },
        {
            "name" : "Foot R",
            "rotation" : [
                -3.3717498126861756e-07,
                0.7071068286895752,
                0.7071068286895752,
                -3.371746686298138e-07
            ],
            "translation" : [
                2,
                -2,
                -2
            ]
        },
        {
            "mesh" : 0,
            "name" : "Arm L",
            "skin" : 0
        },
        {
            "mesh" : 1,
            "name" : "Arm R",
            "skin" : 0
        },
        {
            "mesh" : 2,
            "name" : "Body",
            "skin" : 0
        },
        {
            "mesh" : 3,
            "name" : "Foot L",
            "skin" : 0
        },
        {
            "mesh" : 4,
            "name" : "Foot R",
            "skin" : 0
        },
        {
            "mesh" : 5,
            "name" : "Head",
            "skin" : 0
        },
        {
            "children" : [
                6,
                7,
                8,
                9,
                10,
                11,
                3,
                4,
                5
            ],
            "name" : "Armature"
        }
    ],
    "materials" : [
        {
            "doubleSided" : true,
            "emissiveFactor" : [
                0,
                0,
                0
            ],
            "name" : "Skin",
            "pbrMetallicRoughness" : {
                "baseColorFactor" : [
                    1,
                    1,
                    1,
                    1
                ],
                "metallicFactor" : 0,
                "roughnessFactor" : 0.5
            }
        },
        {
            "doubleSided" : true,
            "emissiveFactor" : [
                0,
                0,
                0
            ],
            "name" : "Eyes",
            "pbrMetallicRoughness" : {
                "baseColorFactor" : [
                    0,
                    0,
                    0,
                    1
                ],
                "metallicFactor" : 0,
                "roughnessFactor" : 0.5
            }
        }
    ],
    "meshes" : [
        {
            "name" : "Cube.003",
            "primitives" : [
                {
                    "attributes" : {
                        "POSITION" : 0,
                        "NORMAL" : 1,
                        "TEXCOORD_0" : 2,
                        "JOINTS_0" : 3,
                        "WEIGHTS_0" : 4
                    },
                    "indices" : 5,
                    "material" : 0
                }
            ]
        },
        {
            "name" : "Cube.004",
            "primitives" : [
                {
                    "attributes" : {
                        "POSITION" : 7,
                        "NORMAL" : 8,
                        "TEXCOORD_0" : 9,
                        "JOINTS_0" : 10,
                        "WEIGHTS_0" : 11
                    },
                    "indices" : 5,
                    "material" : 0
                }
            ]
        },
        {
            "name" : "Cube.002",
            "primitives" : [
                {
                    "attributes" : {
                        "POSITION" : 12,
                        "NORMAL" : 13,
                        "TEXCOORD_0" : 14,
                        "JOINTS_0" : 15,
                        "WEIGHTS_0" : 16
                    },
                    "indices" : 17,
                    "material" : 0
                }
            ]
        },
        {
            "name" : "Cube.005",
            "primitives" : [
                {
                    "attributes" : {
                        "POSITION" : 18,
                        "NORMAL" : 19,
                        "TEXCOORD_0" : 20,
                        "JOINTS_0" : 21,
                        "WEIGHTS_0" : 22
                    },
                    "indices" : 5,
                    "material" : 0
                }
            ]
        },
        {
            "name" : "Cube.006",
            "primitives" : [
                {
                    "attributes" : {
                        "POSITION" : 23,
                        "NORMAL" : 24,
                        "TEXCOORD_0" : 25,
                        "JOINTS_0" : 26,
                        "WEIGHTS_0" : 27
                    },
                    "indices" : 5,
                    "material" : 0
                }
            ]
        },
        {
            "name" : "Cube.001",
            "primitives" : [
                {
                    "attributes" : {
                        "POSITION" : 28,
                        "NORMAL" : 29,
                        "TEXCOORD_0" : 30,
                        "JOINTS_0" : 31,
                        "WEIGHTS_0" : 32
                    },
                    "indices" : 33,
                    "material" : 0
                },
                {
                    "attributes" : {
                        "POSITION" : 34,
                        "NORMAL" : 35,
                        "TEXCOORD_0" : 36,
                        "JOINTS_0" : 37,
                        "WEIGHTS_0" : 38
                    },
                    "indices" : 39,
                    "material" : 1
                }
            ]
        }
    ],
    "skins" : [
        {
            "inverseBindMatrices" : 6,
            "joints" : [
                3,
                0,
                1,
                2,
                4,
                5
            ],
            "name" : "Armature"
        }
    ],
    "accessors" : [
        {
            "bufferView" : 0,
            "componentType" : 5126,
            "count" : 24,
            "max" : [
                -4,
                5,
                1
            ],
            "min" : [
                -6,
                2,
                -1
            ],
            "type" : "VEC3"
        },
        {
            "bufferView" : 1,
            "componentType" : 5126,
            "count" : 24,
            "type" : "VEC3"
        },
        {
            "bufferView" : 2,
            "componentType" : 5126,
            "count" : 24,
            "type" : "VEC2"
        },
        {
            "bufferView" : 3,
            "componentType" : 5123,
            "count" : 24,
            "type" : "VEC4"
        },
        {
            "bufferView" : 4,
            "componentType" : 5126,
            "count" : 24,
            "type" : "VEC4"
        },
        {
            "bufferView" : 5,
            "componentType" : 5123,
            "count" : 36,
            "type" : "SCALAR"
        },
        {
            "bufferView" : 6,
            "componentType" : 5126,
            "count" : 6,
            "type" : "MAT4"
        },
        {
            "bufferView" : 7,
            "componentType" : 5126,
            "count" : 24,
            "max" : [
                6,
                5,
                1
            ],
            "min" : [
                4,
                2,
                -1
            ],
            "type" : "VEC3"
        },
        {
            "bufferView" : 8,
            "componentType" : 5126,
            "count" : 24,
            "type" : "VEC3"
        },
        {
            "bufferView" : 9,
            "componentType" : 5126,
            "count" : 24,
            "type" : "VEC2"
        },
        {
            "bufferView" : 10,
            "componentType" : 5123,
            "count" : 24,
            "type" : "VEC4"
        },
        {
            "bufferView" : 11,
            "componentType" : 5126,
            "count" : 24,
            "type" : "VEC4"
        },
        {
            "bufferView" : 12,
            "componentType" : 5126,
            "count" : 449,
            "max" : [
                4,
                6,
                4
            ],
            "min" : [
                -4,
                0,
                -4
            ],
            "type" : "VEC3"
        },
        {
            "bufferView" : 13,
            "componentType" : 5126,
            "count" : 449,
            "type" : "VEC3"
        },
        {
            "bufferView" : 14,
            "componentType" : 5126,
            "count" : 449,
            "type" : "VEC2"
        },
        {
            "bufferView" : 15,
            "componentType" : 5123,
            "count" : 449,
            "type" : "VEC4"
        },
        {
            "bufferView" : 16,
            "componentType" : 5126,
            "count" : 449,
            "type" : "VEC4"
        },
        {
            "bufferView" : 17,
            "componentType" : 5123,
            "count" : 1554,
            "type" : "SCALAR"
        },
        {
            "bufferView" : 18,
            "componentType" : 5126,
            "count" : 24,
            "max" : [
                -1,
                -1,
                2
            ],
            "min" : [
                -3,
                -3,
                -2
            ],
            "type" : "VEC3"
        },
        {
            "bufferView" : 19,
            "componentType" : 5126,
            "count" : 24,
            "type" : "VEC3"
        },
        {
            "bufferView" : 20,
            "componentType" : 5126,
            "count" : 24,
            "type" : "VEC2"
        },
        {
            "bufferView" : 21,
            "componentType" : 5123,
            "count" : 24,
            "type" : "VEC4"
        },
        {
            "bufferView" : 22,
            "componentType" : 5126,
            "count" : 24,
            "type" : "VEC4"
        },
        {
            "bufferView" : 23,
            "componentType" : 5126,
            "count" : 24,
            "max" : [
                3,
                -1,
                2
            ],
            "min" : [
                1,
                -3,
                -2
            ],
            "type" : "VEC3"
        },
        {
            "bufferView" : 24,
            "componentType" : 5126,
            "count" : 24,
            "type" : "VEC3"
        },
        {
            "bufferView" : 25,
            "componentType" : 5126,
            "count" : 24,
            "type" : "VEC2"
        },
        {
            "bufferView" : 26,
            "componentType" : 5123,
            "count" : 24,
            "type" : "VEC4"
        },
        {
            "bufferView" : 27,
            "componentType" : 5126,
            "count" : 24,
            "type" : "VEC4"
        },
        {
            "bufferView" : 28,
            "componentType" : 5126,
            "count" : 559,
            "max" : [
                4,
                14,
                4
            ],
            "min" : [
                -4,
                6,
                -4
            ],
            "type" : "VEC3"
        },
        {
            "bufferView" : 29,
            "componentType" : 5126,
            "count" : 559,
            "type" : "VEC3"
        },
        {
            "bufferView" : 30,
            "componentType" : 5126,
            "count" : 559,
            "type" : "VEC2"
        },
        {
            "bufferView" : 31,
            "componentType" : 5123,
            "count" : 559,
            "type" : "VEC4"
        },
        {
            "bufferView" : 32,
            "componentType" : 5126,
            "count" : 559,
            "type" : "VEC4"
        },
        {
            "bufferView" : 33,
            "componentType" : 5123,
            "count" : 1710,
            "type" : "SCALAR"
        },
        {
            "bufferView" : 34,
            "componentType" : 5126,
            "count" : 16,
            "max" : [
                2,
                10,
                4
            ],
            "min" : [
                -2,
                7,
                4
            ],
            "type" : "VEC3"
        },
        {
            "bufferView" : 35,
            "componentType" : 5126,
            "count" : 16,
            "type" : "VEC3"
        },
        {
            "bufferView" : 36,
            "componentType" : 5126,
            "count" : 16,
            "type" : "VEC2"
        },
        {
            "bufferView" : 37,
            "componentType" : 5123,
            "count" : 16,
            "type" : "VEC4"
        },
        {
            "bufferView" : 38,
            "componentType" : 5126,
            "count" : 16,
            "type" : "VEC4"
        },
        {
            "bufferView" : 39,
            "componentType" : 5123,
            "count" : 36,
            "type" : "SCALAR"
        }
    ],
    "bufferViews" : [
        {
            "buffer" : 0,
            "byteLength" : 288,
            "byteOffset" : 0
        },
        {
            "buffer" : 0,
            "byteLength" : 288,
            "byteOffset" : 288
        },
        {
            "buffer" : 0,
            "byteLength" : 192,
            "byteOffset" : 576
        },
        {
            "buffer" : 0,
            "byteLength" : 192,
            "byteOffset" : 768
        },
        {
            "buffer" : 0,
            "byteLength" : 384,
            "byteOffset" : 960
        },
        {
            "buffer" : 0,
            "byteLength" : 72,
            "byteOffset" : 1344
        },
        {
            "buffer" : 0,
            "byteLength" : 384,
            "byteOffset" : 1416
        },
        {
            "buffer" : 0,
            "byteLength" : 288,
            "byteOffset" : 1800
        },
        {
            "buffer" : 0,
            "byteLength" : 288,
            "byteOffset" : 2088
        },
        {
            "buffer" : 0,
            "byteLength" : 192,
            "byteOffset" : 2376
        },
        {
            "buffer" : 0,
            "byteLength" : 192,
            "byteOffset" : 2568
        },
        {
            "buffer" : 0,
            "byteLength" : 384,
            "byteOffset" : 2760
        },
        {
            "buffer" : 0,
            "byteLength" : 5388,
            "byteOffset" : 3144
        },
        {
            "buffer" : 0,
            "byteLength" : 5388,
            "byteOffset" : 8532
        },
        {
            "buffer" : 0,
            "byteLength" : 3592,
            "byteOffset" : 13920
        },
        {
            "buffer" : 0,
            "byteLength" : 3592,
            "byteOffset" : 17512
        },
        {
            "buffer" : 0,
            "byteLength" : 7184,
            "byteOffset" : 21104
        },
        {
            "buffer" : 0,
            "byteLength" : 3108,
            "byteOffset" : 28288
        },
        {
            "buffer" : 0,
            "byteLength" : 288,
            "byteOffset" : 31396
        },
        {
            "buffer" : 0,
            "byteLength" : 288,
            "byteOffset" : 31684
        },
        {
            "buffer" : 0,
            "byteLength" : 192,
            "byteOffset" : 31972
        },
        {
            "buffer" : 0,
            "byteLength" : 192,
            "byteOffset" : 32164
        },
        {
            "buffer" : 0,
            "byteLength" : 384,
            "byteOffset" : 32356
        },
        {
            "buffer" : 0,
            "byteLength" : 288,
            "byteOffset" : 32740
        },
        {
            "buffer" : 0,
            "byteLength" : 288,
            "byteOffset" : 33028
        },
        {
            "buffer" : 0,
            "byteLength" : 192,
            "byteOffset" : 33316
        },
        {
            "buffer" : 0,
            "byteLength" : 192,
            "byteOffset" : 33508
        },
        {
            "buffer" : 0,
            "byteLength" : 384,
            "byteOffset" : 33700
        },
        {
            "buffer" : 0,
            "byteLength" : 6708,
            "byteOffset" : 34084
        },
        {
            "buffer" : 0,
            "byteLength" : 6708,
            "byteOffset" : 40792
        },
        {
            "buffer" : 0,
            "byteLength" : 4472,
            "byteOffset" : 47500
        },
        {
            "buffer" : 0,
            "byteLength" : 4472,
            "byteOffset" : 51972
        },
        {
            "buffer" : 0,
            "byteLength" : 8944,
            "byteOffset" : 56444
        },
        {
            "buffer" : 0,
            "byteLength" : 3420,
            "byteOffset" : 65388
        },
        {
            "buffer" : 0,
            "byteLength" : 192,
            "byteOffset" : 68808
        },
        {
            "buffer" : 0,
            "byteLength" : 192,
            "byteOffset" : 69000
        },
        {
            "buffer" : 0,
            "byteLength" : 128,
            "byteOffset" : 69192
        },
        {
            "buffer" : 0,
            "byteLength" : 128,
            "byteOffset" : 69320
        },
        {
            "buffer" : 0,
            "byteLength" : 256,
            "byteOffset" : 69448
        },
        {
            "buffer" : 0,
            "byteLength" : 72,
            "byteOffset" : 69704
        }
    ],
    "buffers" : [
        {
            "byteLength" : 69776,
            "uri" : "data:application/octet-stream;base64,"
        }
    ]
}
